<svg xmlns="http://www.w3.org/2000/svg" version="1.1" xmlns:xlink="http://www.w3.org/1999/xlink" width="1000" height="1000"><g clip-path="url(#SvgjsClipPath1076)"><rect width="1000" height="1000" fill="#ffffff"></rect><g transform="matrix(4.861111111111111,0,0,4.861111111111111,150,293.4027777777778)"><svg xmlns="http://www.w3.org/2000/svg" version="1.1" xmlns:xlink="http://www.w3.org/1999/xlink" width="144" height="85"><svg width="144" height="85" viewBox="0 0 144 85" fill="none" xmlns="http://www.w3.org/2000/svg">
<path d="M143.438 53.7646L142.19 60.8724C141.856 62.7554 140.12 63.9527 138.216 63.7756C129.384 62.9465 112.938 70.9536 105.071 72.9434C96.8895 75.0148 89.1627 76.9821 81.2957 75.5909C75.0638 74.492 70.5343 71.749 67.8082 67.4321C63.7639 61.0326 64.9251 54.2986 66.5209 48.0734C52.2818 55.8528 23.1949 75.4841 12.2259 83.182C10.6357 84.3175 8.70051 84.7053 6.86628 84.3793C0.900817 83.3254 -0.148117 76.9765 2.01426 73.4999L33.2635 22.9785L33.2803 22.9532C34.6154 20.8032 34.0965 18.389 32.6409 16.8517C31.3339 15.4605 29.2613 14.786 27.1129 15.6769L12.7813 22.0258C10.9358 22.7959 8.83514 21.9218 8.0891 20.0781L7.73291 19.2181L22.9032 4.51924C23.9381 3.51308 24.9422 2.41137 25.8929 1.23659C34.1105 -0.132122 41.2343 3.67328 45.1804 9.59779C46.2237 11.1632 47.0455 12.8776 47.6064 14.682C49.1518 19.6593 48.7199 25.3337 45.5058 30.5247L32.2959 51.8648C59.4841 33.5657 69.0535 29.9345 74.6572 30.5837C86.7984 32.0199 81.6828 47.3736 81.1274 49.102C78.6986 56.8225 78.8192 60.5435 83.8115 61.4232C88.6523 62.2804 94.6374 60.7571 101.579 58.9921C110.498 56.7325 128.82 48.2814 140.403 49.5292C142.437 49.7513 143.839 51.758 143.438 53.7646Z" fill="#3433FE"></path>
</svg></svg></g></g><defs><clipPath id="SvgjsClipPath1076"><rect width="1000" height="1000" x="0" y="0" rx="500" ry="500"></rect></clipPath></defs></svg>