<svg width="1259" height="327" viewBox="0 0 1259 327" fill="none" xmlns="http://www.w3.org/2000/svg">
<path d="M755.759 94.9631C759.119 94.9631 760.799 94.9631 762.083 95.617C763.211 96.1923 764.129 97.1101 764.705 98.2391C765.359 99.5226 765.359 101.203 765.359 104.563V112.215C765.359 115.575 765.359 117.256 764.705 118.539C764.129 119.668 763.211 120.586 762.083 121.161C760.799 121.815 759.119 121.815 755.759 121.815H697.339C693.979 121.815 692.299 121.815 691.016 121.161C689.887 120.586 688.969 119.668 688.393 118.539C687.74 117.256 687.74 115.575 687.74 112.215V104.563C687.74 101.203 687.74 99.5226 688.393 98.2391C688.969 97.1101 689.887 96.1923 691.016 95.617C692.299 94.9631 693.979 94.9631 697.34 94.9631H755.759ZM705.361 73.6833C705.361 70.3229 705.361 68.6428 706.015 67.3593C706.59 66.2303 707.508 65.3125 708.637 64.7372C709.921 64.0833 711.601 64.0833 714.961 64.0833H731.508C734.868 64.0833 736.548 64.0833 737.832 64.7372C738.961 65.3125 739.879 66.2303 740.454 67.3593C741.108 68.6428 741.108 70.3229 741.108 73.6833V184.246C741.108 187.547 741.611 190.12 742.618 191.966C743.625 193.756 745.024 195.015 746.814 195.742C748.66 196.469 750.786 196.833 753.191 196.833C754.87 196.833 756.548 196.693 758.226 196.413V196.413C760.37 195.984 762.447 197.367 762.899 199.506L766.096 214.63C766.525 216.66 766.739 217.675 766.613 218.679C766.398 220.378 765.275 222.126 763.819 223.028C762.959 223.56 762.025 223.769 760.156 224.188V224.188C756.911 224.972 752.967 225.447 748.324 225.615C739.709 225.951 732.157 224.804 725.668 222.174C719.235 219.545 714.228 215.461 710.648 209.923C707.067 204.385 705.305 197.392 705.361 188.945V73.6833Z" fill="#3433FE"/>
<path d="M594.072 225.951C584.282 225.951 575.415 223.433 567.472 218.399C559.584 213.308 553.318 205.84 548.675 195.994C544.088 186.092 541.794 173.953 541.794 159.576C541.794 144.807 544.172 132.528 548.927 122.738C553.682 112.893 560.003 105.536 567.891 100.669C575.835 95.7464 584.534 93.285 593.988 93.285C601.205 93.285 607.218 94.5157 612.029 96.9771C616.896 99.3826 620.812 102.403 623.777 106.04C626.685 109.486 628.919 112.881 630.479 116.224C630.589 116.46 630.825 116.613 631.086 116.613V116.613C631.452 116.613 631.749 116.316 631.749 115.95V61.6C631.749 58.2397 631.749 56.5595 632.403 55.2761C632.978 54.1471 633.896 53.2292 635.025 52.654C636.308 52 637.988 52 641.349 52H657.812C661.172 52 662.852 52 664.135 52.654C665.264 53.2292 666.182 54.1471 666.758 55.2761C667.411 56.5595 667.411 58.2397 667.411 61.6V214.253C667.411 217.613 667.411 219.293 666.758 220.577C666.182 221.706 665.264 222.624 664.135 223.199C662.852 223.853 661.172 223.853 657.811 223.853H641.768C638.408 223.853 636.728 223.853 635.444 223.199C634.315 222.624 633.397 221.706 632.822 220.577C632.168 219.293 632.168 217.613 632.168 214.253V204.134C632.168 203.624 631.755 203.21 631.245 203.21V203.21C630.887 203.21 630.562 203.418 630.404 203.74C628.743 207.141 626.45 210.517 623.525 213.867C620.504 217.336 616.561 220.217 611.694 222.51C606.883 224.804 601.009 225.951 594.072 225.951ZM605.4 197.504C611.162 197.504 616.029 195.938 620.001 192.805C624.029 189.617 627.106 185.169 629.231 179.463C631.413 173.757 632.504 167.072 632.504 159.408C632.504 151.744 631.441 145.087 629.315 139.437C627.189 133.787 624.113 129.423 620.085 126.347C616.057 123.27 611.162 121.731 605.4 121.731C599.526 121.731 594.575 123.326 590.548 126.514C586.52 129.703 583.471 134.122 581.401 139.773C579.331 145.423 578.296 151.968 578.296 159.408C578.296 166.904 579.331 173.533 581.401 179.295C583.527 185.001 586.576 189.477 590.548 192.721C594.575 195.91 599.526 197.504 605.4 197.504Z" fill="#3433FE"/>
<path d="M465.489 223.853C462.129 223.853 460.448 223.853 459.165 223.199C458.036 222.623 457.118 221.706 456.543 220.577C455.889 219.293 455.889 217.613 455.889 214.253V104.563C455.889 101.203 455.889 99.5225 456.543 98.2391C457.118 97.1101 458.036 96.1922 459.165 95.617C460.448 94.963 462.129 94.963 465.489 94.963H480.945C484.305 94.963 485.985 94.963 487.269 95.617C488.398 96.1922 489.316 97.1101 489.891 98.2391C490.545 99.5225 490.545 101.203 490.545 104.563V116.684C490.545 117.108 490.889 117.452 491.313 117.452V117.452C491.653 117.452 491.953 117.226 492.053 116.9C494.42 109.174 498.309 103.316 503.719 99.3265C509.257 95.1868 515.635 93.1169 522.851 93.1169C524.641 93.1169 526.571 93.2288 528.641 93.4526V93.4526C528.972 93.4884 529.137 93.5063 529.525 93.6015C531.686 94.1317 533.748 96.4283 534.042 98.6331C534.095 99.0291 534.095 99.3233 534.095 99.9118V118.995C534.095 122.533 530.639 125.215 527.131 124.752V124.752C524.166 124.36 521.453 124.165 518.991 124.165C513.733 124.165 509.034 125.311 504.894 127.605C500.81 129.843 497.565 132.975 495.16 137.003C492.81 141.031 491.636 145.674 491.636 150.933V214.253C491.636 217.613 491.636 219.293 490.982 220.577C490.406 221.706 489.489 222.623 488.36 223.199C487.076 223.853 485.396 223.853 482.036 223.853H465.489Z" fill="#3433FE"/>
<path d="M375.438 226.37C362.236 226.37 350.879 223.573 341.369 217.979C331.915 212.329 324.643 204.497 319.552 194.483C314.517 184.47 312 172.946 312 159.911C312 146.709 314.545 135.129 319.636 125.172C324.783 115.158 332.083 107.354 341.537 101.76C350.991 96.11 362.236 93.2849 375.27 93.2849C386.514 93.2849 396.36 95.3268 404.807 99.4105C413.254 103.494 419.939 109.228 424.862 116.613C428.06 121.409 430.325 126.748 431.658 132.63C432.305 135.485 432.629 136.913 432.116 138.486C431.71 139.73 430.61 141.107 429.487 141.778C428.066 142.625 426.345 142.625 422.904 142.625H407.554C404.796 142.625 403.417 142.625 402.433 142.272C401.354 141.883 400.931 141.609 400.136 140.782C399.412 140.028 398.615 138.244 397.021 134.677C395.724 131.774 393.956 129.249 391.717 127.102C387.689 123.13 382.403 121.144 375.857 121.144C370.319 121.144 365.48 122.654 361.341 125.675C357.257 128.64 354.068 132.976 351.775 138.682C349.481 144.388 348.334 151.296 348.334 159.408C348.334 167.631 349.453 174.624 351.691 180.386C353.984 186.148 357.201 190.54 361.341 193.56C365.48 196.581 370.319 198.092 375.857 198.092C379.941 198.092 383.605 197.253 386.85 195.574C390.151 193.896 392.864 191.463 394.989 188.274C395.767 187.117 396.449 185.879 397.034 184.559C398.615 180.999 399.405 179.218 400.13 178.461C400.923 177.633 401.351 177.354 402.429 176.966C403.416 176.61 404.794 176.61 407.552 176.61H422.841C426.302 176.61 428.032 176.61 429.454 177.461C430.582 178.135 431.678 179.512 432.083 180.762C432.593 182.338 432.262 183.78 431.6 186.662C430.265 192.471 428.047 197.791 424.946 202.623C420.191 210.063 413.618 215.881 405.227 220.077C396.836 224.272 386.906 226.37 375.438 226.37Z" fill="#3433FE"/>
<path d="M1202.72 224.084C1196.49 224.084 1190.69 222.314 1185.3 218.776C1176 212.084 1171.34 202.238 1171.34 189.239C1171.34 180.47 1173.69 171.163 1178.38 161.317L1179.99 157.394C1181.99 152.702 1183.49 148.241 1184.49 144.01L1184.61 143.549V142.972C1184.69 142.818 1184.73 142.664 1184.73 142.51C1184.73 142.356 1184.76 142.241 1184.84 142.164C1184.69 142.472 1184.61 142.856 1184.61 143.318C1184.61 142.779 1184.69 142.241 1184.84 141.702V137.78C1184.76 137.626 1184.73 137.433 1184.73 137.203V136.395C1184.73 136.703 1184.76 136.972 1184.84 137.203V138.241C1184.76 137.856 1184.69 137.433 1184.61 136.972C1184.61 136.51 1184.46 135.972 1184.15 135.357C1184.15 135.203 1184.11 135.049 1184.03 134.895C1183.96 134.741 1183.92 134.626 1183.92 134.549L1184.61 135.818V136.049C1184.61 135.972 1184.57 135.895 1184.49 135.818C1184.42 135.741 1184.34 135.626 1184.26 135.472C1184.26 135.318 1184.23 135.164 1184.15 135.01C1184.07 134.78 1183.99 134.626 1183.92 134.549C1183.84 134.472 1183.76 134.318 1183.69 134.087C1183.15 133.472 1182.88 133.049 1182.88 132.818L1183.8 133.972C1183.57 133.664 1183.42 133.51 1183.34 133.51C1183.26 133.434 1183.19 133.357 1183.11 133.28C1183.11 133.203 1182.84 132.895 1182.3 132.357L1181.73 131.78L1183.11 132.934L1181.49 132.011C1181.49 132.087 1181.57 132.164 1181.73 132.241C1182.19 132.472 1182.53 132.626 1182.76 132.703C1182.99 132.703 1183.19 132.703 1183.34 132.703C1183.19 132.703 1182.92 132.664 1182.53 132.587C1182.15 132.511 1181.8 132.395 1181.49 132.241C1181.57 132.318 1182.11 132.357 1183.11 132.357C1183.11 132.434 1183.03 132.511 1182.88 132.587C1182.73 132.587 1182.57 132.587 1182.42 132.587C1181.88 132.587 1181.61 132.549 1181.61 132.472C1181.76 132.626 1181.92 132.703 1182.07 132.703C1182.23 132.703 1182.38 132.664 1182.53 132.587C1182.76 132.511 1182.92 132.434 1182.99 132.357L1181.84 132.587C1181.53 132.587 1180.57 132.857 1178.96 133.395H1178.61L1179.65 132.934H1179.99L1179.19 133.395C1178.49 133.626 1177.11 134.395 1175.03 135.703C1174.96 135.703 1174.84 135.78 1174.69 135.933C1174.61 136.01 1174.53 136.049 1174.46 136.049H1174.34C1174.57 135.972 1174.69 135.933 1174.69 135.933C1174.76 135.857 1174.84 135.78 1174.92 135.703C1175 135.626 1175.19 135.472 1175.5 135.241C1175.5 135.318 1175.38 135.433 1175.15 135.587C1172.69 137.664 1170.42 139.933 1168.34 142.395L1168 142.741L1168.8 141.818V141.702L1166.84 144.356C1165.46 146.125 1162.57 150.51 1158.19 157.509C1146.19 175.739 1135.04 191.393 1124.73 204.469L1122.54 207.238C1120.15 210.546 1117.54 213.622 1114.69 216.469C1110 221.161 1104.88 223.507 1099.34 223.507C1095.42 223.507 1091.92 222.161 1088.84 219.468C1084.77 215.853 1082.73 210.853 1082.73 204.469C1083.5 198.392 1084.88 192.393 1086.88 186.47C1087.5 184.701 1088.04 182.931 1088.5 181.162C1094.88 159.009 1101.73 136.895 1109.04 114.819C1111.34 109.204 1115.23 106.396 1120.69 106.396C1125.3 106.396 1128.73 108.396 1130.96 112.396C1131.96 114.242 1132.46 116.127 1132.46 118.05C1132.46 119.126 1132.3 120.242 1132 121.396C1126.23 138.779 1120.69 156.356 1115.38 174.124C1109.46 194.277 1106.5 204.738 1106.5 205.507L1106.27 206.315L1106.38 206.084C1106.38 205.546 1106.46 205.046 1106.61 204.584C1106.54 204.661 1106.5 204.815 1106.5 205.046V205.623C1106.42 205.469 1106.38 205.354 1106.38 205.277C1106.38 205.123 1106.34 204.854 1106.27 204.469L1106.38 204.931V204.7L1105.69 203.2C1105.69 203.277 1105.81 203.431 1106.04 203.661V203.777L1105.46 202.854C1104 200.777 1102.08 199.738 1099.69 199.738L1097.73 199.969L1098.19 199.854C1098.19 199.931 1097.96 200.046 1097.5 200.2L1096.69 200.431L1097.84 199.854C1097.92 199.854 1097.96 199.892 1097.96 199.969C1097.88 200.046 1097.73 200.161 1097.5 200.315C1097.34 200.392 1097.15 200.508 1096.92 200.661C1096.77 200.815 1096.65 200.892 1096.58 200.892L1096.81 200.661C1098.34 199.354 1099.58 198.085 1100.5 196.854C1100.81 196.316 1101.19 195.816 1101.65 195.354C1101.65 195.508 1101.38 195.854 1100.84 196.392L1105.46 190.623C1115.54 177.855 1126.27 162.74 1137.65 145.279C1139.5 142.356 1141.38 139.472 1143.3 136.626C1152.77 121.626 1163.53 112.588 1175.61 109.511C1177.76 108.973 1179.92 108.704 1182.07 108.704C1189.69 108.704 1195.88 111.511 1200.65 117.127C1206.03 123.742 1208.72 131.318 1208.72 139.856C1208.42 147.548 1206.72 154.971 1203.65 162.125L1201.34 167.663C1198.42 174.124 1196.42 180.009 1195.34 185.316L1195.11 186.354L1195.22 186.124C1195.22 185.662 1195.22 185.278 1195.22 184.97C1195.3 184.662 1195.38 184.508 1195.46 184.508L1195.34 185.662C1195.19 186.431 1195.11 187.777 1195.11 189.7V191.546C1195.11 192.085 1195.15 192.431 1195.22 192.585V192.931C1195.15 192.854 1195.11 192.623 1195.11 192.239L1194.99 191.316L1195.11 191.546C1195.11 192.008 1195.15 192.316 1195.22 192.47V192.931C1195.53 194.316 1195.72 195.123 1195.8 195.354C1195.96 195.585 1196.07 195.777 1196.15 195.931V196.162C1196.07 196.162 1195.99 196.085 1195.92 195.931C1195.92 195.777 1195.88 195.662 1195.8 195.585C1195.8 195.431 1195.69 195.085 1195.46 194.546L1196.61 196.508L1197.53 198.354L1197.42 198.123C1197.26 198.046 1197.07 197.892 1196.84 197.662C1196.61 197.431 1196.49 197.2 1196.49 196.969L1198.8 199.277C1198.8 199.2 1198.72 199.123 1198.57 199.046C1198.49 198.969 1198.34 198.854 1198.11 198.7C1197.88 198.546 1197.65 198.354 1197.42 198.123H1197.3L1198.11 198.585C1198.42 198.892 1198.76 199.123 1199.15 199.277C1199.84 199.585 1200.19 199.815 1200.19 199.969L1199.96 199.854C1199.72 199.854 1199.53 199.777 1199.38 199.623C1198.84 199.469 1198.57 199.315 1198.57 199.162L1198.8 199.277C1198.96 199.277 1199.07 199.315 1199.15 199.392C1199.3 199.469 1199.46 199.508 1199.61 199.508C1200.53 199.892 1201.19 200.085 1201.57 200.085L1202.38 200.315L1202.15 200.2C1201.61 200.2 1201.19 200.123 1200.88 199.969H1200.42C1200.8 200.123 1201.34 200.2 1202.03 200.2C1202.19 200.123 1203.19 200.085 1205.03 200.085H1204.69L1203.99 200.2L1204.57 200.085C1204.96 200.008 1205.38 199.931 1205.84 199.854C1206.38 199.7 1206.84 199.585 1207.22 199.508C1207.61 199.431 1207.88 199.392 1208.03 199.392C1208.26 199.315 1208.53 199.2 1208.84 199.046C1209.22 198.892 1209.61 198.777 1209.99 198.7L1208.38 199.392L1209.07 198.931C1209.53 198.931 1210.76 198.277 1212.76 196.969L1213.11 196.854C1213.57 196.469 1213.84 196.277 1213.92 196.277L1212.3 197.431H1212.42L1213.22 196.739C1214.61 195.662 1215.88 194.431 1217.03 193.046L1218.53 191.316L1221.65 187.162C1225.49 181.932 1229.07 175.816 1232.38 168.817C1232.45 168.509 1232.53 168.317 1232.61 168.24L1232.03 169.394C1232.11 169.163 1232.18 168.971 1232.26 168.817C1232.42 168.586 1232.49 168.394 1232.49 168.24C1233.26 166.548 1234.18 164.086 1235.26 160.855C1236.34 157.625 1238.22 155.279 1240.92 153.817C1242.76 152.817 1244.72 152.317 1246.8 152.317C1251.41 152.317 1254.84 154.356 1257.07 158.432C1258.07 160.279 1258.57 162.163 1258.57 164.086C1258.57 167.009 1256.76 172.317 1253.15 180.009C1246.22 195.546 1237.57 207.507 1227.19 215.892C1221.11 220.276 1214.22 222.93 1206.53 223.853C1205.22 224.007 1203.96 224.084 1202.72 224.084Z" fill="#3433FE"/>
<path d="M980.388 298.619C972.004 298.619 964.504 295.85 957.889 290.311C951.197 284.389 947.851 276.774 947.851 267.466C948.851 258.313 952.735 251.005 959.504 245.544C966.196 240.083 973.773 236.275 982.234 234.122C990.003 232.352 997.887 231.199 1005.89 230.66L1016.85 229.506L1015.92 229.737L1017.77 229.391C1019.31 229.237 1021.58 228.853 1024.58 228.237C1029.5 227.237 1033.96 225.968 1037.96 224.43L1039.23 223.968L1037.62 224.66L1039.81 223.737C1047.19 220.507 1053.5 216.93 1058.73 213.007L1059.77 212.315L1058.27 213.353L1059.65 212.315C1062.12 210.469 1065 208.007 1068.31 204.93C1072.23 201.008 1074.88 198.123 1076.27 196.277L1077.54 194.892L1076.61 195.931V196.046L1078.92 192.931C1083.31 187.008 1086.92 180.97 1089.77 174.816C1089.77 174.739 1089.84 174.547 1090 174.239C1090.23 173.855 1090.34 173.547 1090.34 173.316H1090.46C1090.46 173.393 1090.42 173.47 1090.34 173.547C1090.27 173.624 1090.15 173.855 1090 174.239C1089.92 174.547 1089.84 174.739 1089.77 174.816V174.932L1089.88 174.586C1089.88 174.278 1090.04 173.932 1090.34 173.547L1090.46 173.201C1092.23 168.432 1093.46 164.855 1094.15 162.471C1095.23 159.24 1097.15 156.894 1099.92 155.433C1101.77 154.433 1103.77 153.933 1105.92 153.933C1110.46 153.933 1113.81 155.933 1115.96 159.932C1116.96 161.855 1117.46 163.855 1117.46 165.932C1117.46 166.932 1117.34 167.97 1117.11 169.047C1108.34 197.662 1091.31 220.237 1066 236.775C1055.46 243.544 1044.08 248.313 1031.85 251.082C1024.62 252.544 1017.35 253.544 1010.04 254.082L998.964 255.121L999.426 255.005H1000.35C999.656 255.082 999.272 255.121 999.195 255.121C999.118 255.121 999.003 255.159 998.849 255.236C996.387 255.467 993.926 255.89 991.464 256.505C989.388 256.89 986.926 257.544 984.08 258.467C984.003 258.467 983.734 258.544 983.273 258.697C982.811 258.928 982.503 259.044 982.349 259.044C982.503 259.044 982.888 258.89 983.503 258.582H983.619L979.003 260.774C977.773 261.39 977.004 261.851 976.696 262.159L975.773 262.851C975.85 262.851 975.965 262.774 976.119 262.62C976.273 262.466 976.581 262.197 977.042 261.813L975.657 262.851C973.581 264.697 972.542 265.812 972.542 266.197L972.773 265.966C972.927 265.812 973.158 265.428 973.465 264.813C973.311 265.12 973.119 265.389 972.888 265.62C972.658 265.928 972.504 266.159 972.427 266.312C972.35 266.543 972.235 266.736 972.081 266.889C972.004 267.12 971.888 267.389 971.735 267.697L971.504 268.159C971.581 268.005 971.658 267.774 971.735 267.466C971.888 267.159 972.004 266.928 972.081 266.774L972.196 266.659V266.889L971.619 268.159L971.504 268.966H971.388C971.388 268.274 971.465 267.851 971.619 267.697V267.582C971.619 268.12 971.658 268.505 971.735 268.735V269.428L971.504 268.505C971.504 268.582 971.542 268.735 971.619 268.966C971.773 269.274 971.888 269.62 971.965 270.005C972.042 270.389 972.081 270.658 972.081 270.812C972.004 270.735 971.927 270.62 971.85 270.466C971.85 270.389 971.811 270.312 971.735 270.235C971.735 270.158 971.696 269.928 971.619 269.543L973.119 272.197H973.004C972.85 272.12 972.696 271.889 972.542 271.505L972.311 271.043L973.35 271.966L974.619 273.351L974.504 273.235C974.35 273.158 974.158 273.043 973.927 272.889C973.773 272.735 973.619 272.581 973.465 272.428C973.388 272.351 973.311 272.312 973.234 272.312L974.042 272.774C974.504 273.158 975.119 273.543 975.888 273.928C975.965 274.004 976.042 274.043 976.119 274.043C976.196 274.12 976.427 274.197 976.811 274.274L976.465 274.043C976.234 273.889 975.811 273.774 975.196 273.697C975.427 273.774 975.657 273.851 975.888 273.928C976.119 274.004 976.311 274.081 976.465 274.158C976.696 274.235 976.965 274.274 977.273 274.274C977.657 274.351 978.004 274.427 978.311 274.504C978.619 274.581 978.888 274.697 979.119 274.851L978.888 274.735C978.35 274.735 978.042 274.697 977.965 274.62H977.619L978.542 274.735H982.349C982.965 274.735 983.349 274.697 983.503 274.62H983.734C983.657 274.697 983.465 274.735 983.157 274.735H983.042C983.119 274.658 983.234 274.62 983.388 274.62C983.849 274.62 984.311 274.504 984.772 274.274C986.311 274.043 987.734 273.62 989.042 273.004C989.195 273.004 989.311 272.966 989.388 272.889L988.58 273.235L989.388 272.889C992.003 271.505 993.849 270.428 994.926 269.658L995.618 269.197V269.312L995.157 269.658C994.772 269.812 994.541 269.966 994.464 270.12L994.811 269.774C996.964 268.082 999.003 266.236 1000.93 264.236C1001.77 263.39 1002.43 262.62 1002.89 261.928C1003.27 261.543 1003.46 261.274 1003.46 261.12L1002.43 262.736C1002.66 262.274 1003.43 261.197 1004.73 259.505C1008.12 254.582 1011 249.429 1013.39 244.044C1013.54 243.736 1013.69 243.39 1013.85 243.006C1014 242.621 1014.19 242.237 1014.43 241.852L1013.62 243.583L1014.08 242.775C1014.08 242.39 1014.69 240.89 1015.92 238.275C1018.39 231.891 1020.73 225.43 1022.96 218.891L1023.08 218.545C1033.39 188.854 1042.39 158.779 1050.08 128.318L1071.77 137.895L1070.15 141.01L1070.73 139.626H1070.85L1070.5 140.433C1069.96 141.741 1069.46 143.087 1069 144.471C1067.31 149.548 1066.38 152.471 1066.23 153.24C1064.31 160.009 1061.77 166.509 1058.62 172.739C1052.54 183.585 1044.81 193.085 1035.42 201.238C1031.58 204.777 1027.46 207.892 1023.08 210.584C1015.77 215.122 1007.77 217.391 999.08 217.391C997.003 217.391 994.08 217.122 990.311 216.584C986.619 216.045 982.542 214.238 978.08 211.161C968.312 203.7 963.312 193.777 963.081 181.393C963.081 175.855 963.773 170.586 965.158 165.586C970.004 149.279 977.888 135.28 988.811 123.588C996.426 115.434 1005.81 110.281 1016.96 108.127C1019.66 107.665 1022.27 107.435 1024.81 107.435C1033.58 107.435 1041.73 110.127 1049.27 115.511C1059.88 123.588 1065.65 133.703 1066.58 145.856C1066.58 149.394 1065.31 152.24 1062.77 154.394C1060.23 156.548 1057.31 157.625 1054 157.625C1050.85 157.625 1048.19 156.432 1046.04 154.048C1043.89 151.587 1042.77 148.779 1042.69 145.625L1042.81 147.01C1042.65 146.702 1042.58 146.164 1042.58 145.395L1041.77 142.625L1041.54 142.048L1041.65 142.164C1041.65 142.241 1041.65 142.318 1041.65 142.395C1041.73 142.395 1041.89 142.779 1042.12 143.548L1039.58 138.818C1039.35 138.51 1039.19 138.356 1039.12 138.356C1039.12 138.741 1039.46 139.164 1040.15 139.626C1039.69 139.318 1039.27 138.856 1038.89 138.241C1038.12 137.241 1037.27 136.356 1036.35 135.587L1035.54 134.78L1036.12 135.126C1036.35 135.51 1036.58 135.703 1036.81 135.703C1036.73 135.703 1036.62 135.664 1036.46 135.587C1036.31 135.433 1036.12 135.318 1035.89 135.241C1035.73 135.087 1035.54 134.895 1035.31 134.664C1034.15 133.895 1033.12 133.28 1032.19 132.818L1030.81 132.126L1032.31 132.818H1032.54L1031.96 132.703C1031.04 132.318 1030.08 131.972 1029.08 131.664L1027 131.203L1027.23 131.087L1027.58 131.203C1028.19 131.203 1028.58 131.28 1028.73 131.434H1028.16C1027 131.28 1025.85 131.203 1024.69 131.203C1023.69 131.203 1023.04 131.241 1022.73 131.318H1022.04C1023.04 131.318 1023.58 131.241 1023.66 131.087C1023.5 131.241 1022.66 131.434 1021.12 131.664C1020.04 131.818 1018.46 132.241 1016.39 132.933L1015.81 133.049L1016.04 132.933C1016.12 132.933 1016.23 132.895 1016.39 132.818C1016.62 132.664 1016.85 132.587 1017.08 132.587H1016.96C1016.73 132.818 1016.27 133.049 1015.58 133.28C1014.96 133.51 1013.77 134.241 1012 135.472L1009.23 137.087L1010.39 136.164H1010.5C1010.43 136.164 1010.23 136.318 1009.93 136.626C1009 137.241 1007.81 138.279 1006.35 139.741C1004.89 141.202 1003.35 142.856 1001.73 144.702L1002.77 143.664L1002.54 144.01C1002 144.395 1001.04 145.664 999.656 147.817C996.195 152.894 993.426 157.894 991.349 162.817L991.003 163.509L991.234 163.048C989.618 166.817 988.388 170.701 987.542 174.701L986.965 177.355C987.042 176.739 987.08 176.393 987.08 176.316C987.157 176.239 987.195 176.009 987.195 175.624C987.195 176.239 987.157 176.624 987.08 176.778V177.585C987.003 178.893 986.965 180.893 986.965 183.585L987.08 184.162C987.003 184.162 986.965 183.701 986.965 182.778L986.849 182.431C986.926 182.662 986.965 182.931 986.965 183.239C986.965 183.547 987.195 184.547 987.657 186.239L988.234 188.085C988.003 186.854 987.811 186.239 987.657 186.239L988.003 187.162L989.157 189.239L989.849 190.277C989.388 189.277 989.08 188.777 988.926 188.777C990.157 190.239 990.772 190.969 990.772 190.969L991.464 191.662L990.888 191.2C990.58 191.046 990.311 190.854 990.08 190.623C990.311 190.623 990.618 190.816 991.003 191.2C991.926 191.816 992.618 192.239 993.08 192.469L994.234 193.046L993.311 192.7C992.695 192.546 992.388 192.393 992.388 192.239C992.772 192.239 993.08 192.316 993.311 192.469C993.618 192.623 993.887 192.739 994.118 192.816C995.426 193.2 996.349 193.392 996.887 193.392C997.272 193.546 997.541 193.623 997.695 193.623L997.464 193.508C996.772 193.508 996.272 193.431 995.964 193.277H995.734L995.964 193.392L999.541 193.508C1001.23 193.508 1002.23 193.431 1002.54 193.277H1002.89V193.162C1002.43 193.162 1001.77 193.316 1000.93 193.623C1001.16 193.546 1001.35 193.508 1001.5 193.508C1001.73 193.431 1001.96 193.392 1002.19 193.392C1005.89 192.623 1007.93 192.046 1008.31 191.662C1008.23 191.739 1008.12 191.816 1007.96 191.893C1007.81 191.893 1007.62 191.931 1007.39 192.008C1007.23 192.085 1007.08 192.162 1006.93 192.239C1006.77 192.239 1006.69 192.277 1006.69 192.354L1007.85 191.777C1009.54 191.085 1011.23 190.162 1012.93 189.008C1013.16 188.777 1013.5 188.508 1013.96 188.2L1012.58 189.008H1012.93L1013.39 188.662C1020.39 183.278 1025.96 177.893 1030.12 172.509L1031.04 171.47V171.586L1030.12 172.739L1030.58 171.932C1030.96 171.547 1031.31 171.124 1031.62 170.663C1034.39 166.971 1036.69 163.317 1038.54 159.702C1038.69 159.394 1038.85 159.125 1039 158.894C1039.15 158.663 1039.35 158.317 1039.58 157.856L1039.81 157.279L1039.12 158.663L1039.92 156.586C1040.54 155.586 1041.85 151.74 1043.85 145.048C1045.85 138.279 1048.39 131.741 1051.46 125.434C1053.54 121.742 1056.88 119.896 1061.5 119.896C1063.19 119.896 1064.81 120.203 1066.35 120.819C1071.04 123.049 1073.38 126.665 1073.38 131.664C1073.38 132.741 1073.27 133.818 1073.04 134.895C1063.58 171.893 1052.81 206.853 1040.73 239.775C1035.42 254.467 1029.5 266.159 1022.96 274.851C1012.19 288.773 999.233 296.619 984.08 298.388C982.849 298.542 981.619 298.619 980.388 298.619Z" fill="#3433FE"/>
<path d="M921.314 223.738C913.468 223.661 906.391 221.43 900.084 217.045C891.776 211.353 887.623 202.661 887.623 190.97C887.623 183.432 889.93 173.124 894.546 160.048L895.584 156.933C900.276 143.01 905.622 129.357 911.622 115.973C912.314 114.588 913.352 113.434 914.737 112.511C917.122 111.05 919.506 110.319 921.891 110.319C925.967 110.319 929.16 111.896 931.467 115.05C932.929 117.204 933.659 119.511 933.659 121.973C933.659 124.203 933.121 126.357 932.044 128.434C931.89 128.588 931.582 129.203 931.121 130.28L930.89 130.741L931.582 129.472L928.813 135.934C922.583 150.471 917.237 166.086 912.776 182.778C912.16 185.162 911.737 187.124 911.506 188.662C911.506 188.124 911.583 187.547 911.737 186.931C911.737 187.624 911.66 188.124 911.506 188.431C911.429 189.662 911.391 191.085 911.391 192.7C911.468 193.008 911.506 193.508 911.506 194.2L911.622 193.393C911.622 192.931 911.545 192.7 911.391 192.7H911.276L912.083 196.046L912.199 195.7C912.199 195.623 912.122 195.431 911.968 195.123C911.891 194.816 911.776 194.623 911.622 194.546C911.545 194.546 911.506 194.585 911.506 194.662L911.622 194.893C911.699 195.123 911.776 195.316 911.853 195.469C912.006 195.623 912.122 195.777 912.199 195.931C912.276 196.008 912.468 196.354 912.776 196.969C912.776 196.816 912.66 196.546 912.429 196.162L911.968 195.816V195.931C913.352 197.316 914.045 198.046 914.045 198.123C914.122 198.2 914.16 198.277 914.16 198.354L914.045 198.239C913.968 198.239 913.852 198.2 913.699 198.123C913.622 197.969 913.545 197.854 913.468 197.777C913.391 197.7 913.199 197.508 912.891 197.2L914.391 198.008C915.237 198.392 915.968 198.815 916.583 199.277L914.968 198.585C916.506 199.2 917.968 199.585 919.352 199.739L919.814 199.969C918.583 199.815 917.968 199.7 917.968 199.623C918.506 199.623 918.852 199.7 919.006 199.854H923.275L924.429 199.739L923.506 199.854C924.506 199.854 926.621 199.315 929.852 198.239L931.236 197.546L929.736 198.354L932.736 196.854C935.505 195.469 937.428 194.354 938.505 193.508C938.967 193.277 939.198 193.085 939.198 192.931V192.816C938.967 192.816 938.659 193.162 938.275 193.854C938.505 193.393 939.121 192.854 940.121 192.239L941.159 191.547C945.39 187.854 949.082 184.085 952.235 180.239L953.274 178.855L952.235 180.239L953.274 178.97C957.966 172.509 961.927 166.432 965.158 160.74C967.466 157.048 970.889 155.202 975.427 155.202C977.504 155.202 979.542 155.74 981.542 156.817C985.234 159.125 987.08 162.471 987.08 166.855C987.08 169.086 986.542 171.201 985.465 173.201C978.465 186.201 969.542 197.739 958.697 207.815C947.005 218.276 934.544 223.584 921.314 223.738ZM934.813 94.743H931.813C928.736 94.6661 926.352 93.7815 924.66 92.0892L923.275 91.0508C921.275 88.8202 920.275 86.7049 920.275 84.7049C920.121 84.1665 920.045 83.3204 920.045 82.1666C920.045 80.7051 920.391 79.3206 921.083 78.0129C921.621 76.5514 922.467 75.2823 923.621 74.2054C924.775 73.0516 926.083 72.2439 927.544 71.7824C928.775 71.1671 930.121 70.8594 931.582 70.8594H934.582C936.736 70.9363 938.774 71.5132 940.697 72.5901C941.467 73.2823 942.274 73.9362 943.12 74.5515C944.505 76.0899 945.467 77.8591 946.005 79.859C946.236 81.0128 946.351 82.205 946.351 83.4358C946.351 84.8972 946.005 86.2818 945.313 87.5894C944.774 89.0509 943.89 90.3201 942.659 91.397C941.582 92.5508 940.313 93.3584 938.851 93.8199C937.621 94.4353 936.275 94.743 934.813 94.743Z" fill="#3433FE"/>
<path d="M817.587 224.199L814.472 224.084C804.703 223.237 796.088 219.468 788.627 212.776C779.473 204.623 774.897 194.585 774.897 182.662C774.897 177.662 775.781 172.701 777.55 167.778C778.704 164.625 780.627 162.279 783.319 160.74C785.012 159.817 786.896 159.356 788.973 159.356C793.665 159.356 797.127 161.355 799.357 165.355C800.434 167.278 800.973 169.24 800.973 171.24C800.973 172.24 800.819 173.278 800.511 174.355C799.973 175.97 799.55 177.586 799.242 179.201L799.126 179.662L798.896 180.932L798.78 181.97V184.854C798.78 185.239 798.819 185.508 798.896 185.662V186.124L798.665 184.278L798.896 185.662C799.05 186.431 799.242 187.162 799.473 187.854C799.626 188.162 799.78 188.624 799.934 189.239L800.05 189.354C800.05 189.431 800.011 189.47 799.934 189.47V189.239C799.703 189.008 799.588 188.662 799.588 188.2L799.357 187.739C799.357 188.354 799.626 188.931 800.165 189.47C800.319 190.008 800.742 190.739 801.434 191.662L802.011 192.585L801.896 192.354C801.742 192.277 801.511 192.085 801.203 191.777C800.973 191.47 800.857 191.239 800.857 191.085L801.78 192.123C802.78 193.354 803.857 194.508 805.011 195.585C805.088 195.585 805.165 195.662 805.242 195.816C805.395 195.969 805.549 196.162 805.703 196.392C805.934 196.546 806.126 196.623 806.28 196.623C805.357 195.931 804.857 195.546 804.78 195.469C804.78 195.392 804.742 195.354 804.665 195.354L806.972 197.085L809.511 198.7C810.049 198.854 810.588 199.123 811.126 199.508C811.126 199.431 811.011 199.354 810.78 199.277L809.626 198.815C809.857 199.046 810.857 199.315 812.626 199.623C813.78 199.854 814.818 200.123 815.741 200.431L815.28 200.315H814.01C814.01 200.238 814.049 200.2 814.126 200.2L814.703 200.315L820.472 200.2L818.856 200.431H819.203L820.472 200.085C821.702 199.931 822.933 199.623 824.164 199.162L823.587 199.392L824.51 198.931C825.279 198.546 826.087 198.085 826.933 197.546L827.856 197.085C827.779 197.085 827.664 197.162 827.51 197.315C827.433 197.392 827.279 197.508 827.048 197.662C826.895 197.739 826.741 197.854 826.587 198.008C826.51 198.085 826.433 198.123 826.356 198.123L827.625 196.969C828.702 196.2 829.356 195.546 829.587 195.008L830.164 194.431L829.125 195.816L830.971 193.046C831.048 192.816 831.125 192.623 831.202 192.47C831.356 192.239 831.471 192.008 831.548 191.777C831.702 191.547 831.817 191.393 831.894 191.316C831.894 191.47 831.817 191.623 831.664 191.777C831.587 191.931 831.51 192.046 831.433 192.123C831.433 192.2 831.317 192.47 831.087 192.931C831.702 191.854 832.087 190.662 832.24 189.354C832.317 188.97 832.433 188.624 832.587 188.316V187.97H832.702L832.587 188.2V189.239L832.471 189.7H832.356C832.356 189.239 832.394 188.931 832.471 188.777V186.701L832.356 185.316L832.587 185.778C832.587 186.393 832.625 186.739 832.702 186.816V186.931C832.548 186.931 832.471 186.624 832.471 186.008C832.394 185.854 832.356 185.662 832.356 185.431L831.433 182.547L831.202 182.085V182.201C831.202 182.355 831.433 182.893 831.894 183.816L831.548 182.893C830.241 180.278 827.856 176.547 824.395 171.701C817.318 163.086 813.587 154.125 813.203 144.818C813.28 139.203 814.51 133.895 816.895 128.895C821.587 119.742 828.779 113.473 838.471 110.088C842.317 108.781 846.24 108.127 850.24 108.127C852.624 108.127 856.047 108.55 860.508 109.396C864.97 110.242 869.47 112.858 874.008 117.242C878.546 121.549 881.046 127.28 881.508 134.434C881.508 137.895 880.315 140.702 877.931 142.856C875.546 144.933 872.739 146.048 869.508 146.202C866.124 146.202 863.355 145.01 861.201 142.625C859.047 140.241 857.893 137.395 857.739 134.087V133.51C857.816 133.51 857.855 133.587 857.855 133.741C857.855 133.818 857.855 133.972 857.855 134.203C857.932 134.357 858.009 134.51 858.086 134.664V135.126L857.97 135.241L857.855 135.01C857.778 134.857 857.739 134.741 857.739 134.664C857.739 134.587 857.662 134.28 857.509 133.741C857.97 134.51 858.201 134.934 858.201 135.01C858.201 135.087 858.239 135.164 858.316 135.241H858.201L857.162 133.741V133.51L858.201 134.664V134.895C858.124 134.895 857.97 134.78 857.739 134.549L856.586 133.28C856.662 133.28 856.739 133.318 856.816 133.395C856.893 133.472 857.047 133.626 857.278 133.857C857.586 134.087 857.816 134.28 857.97 134.434L857.624 134.087L856.932 133.741C856.316 133.28 855.701 132.895 855.086 132.587L854.278 132.126H854.509C854.97 132.357 855.278 132.511 855.432 132.587C855.663 132.664 855.816 132.741 855.893 132.818C855.97 132.818 856.009 132.857 856.009 132.934L855.893 132.818L853.816 132.126C852.893 132.126 852.317 132.011 852.086 131.78C852.778 131.78 853.278 131.857 853.586 132.011C853.047 132.011 852.663 131.972 852.432 131.895L848.278 132.011C849.355 132.011 849.932 131.972 850.009 131.895L848.509 132.011C847.74 132.087 846.971 132.318 846.201 132.703C845.432 133.087 844.817 133.28 844.355 133.28L845.971 132.587L844.932 133.164C844.163 133.395 843.432 133.78 842.74 134.318C842.202 134.472 841.779 134.703 841.471 135.01C841.625 135.01 841.855 134.895 842.163 134.664C842.548 134.357 842.74 134.164 842.74 134.087C842.586 134.549 842.048 135.049 841.125 135.587C840.509 136.049 840.086 136.472 839.856 136.857C839.625 137.164 839.394 137.433 839.163 137.664C839.163 137.51 839.394 137.203 839.856 136.741L840.086 136.28V136.395C840.009 136.549 839.894 136.741 839.74 136.972C839.586 137.203 839.356 137.549 839.048 138.01C838.817 138.395 838.586 138.818 838.356 139.279C838.125 139.664 837.933 140.01 837.779 140.318L837.548 140.779L838.24 139.049C838.24 139.279 838.202 139.472 838.125 139.626C838.048 139.779 837.971 139.933 837.894 140.087L837.086 142.856C837.086 143.164 837.048 143.433 836.971 143.664C836.971 143.895 836.933 144.01 836.856 144.01L837.202 142.164V142.51C837.125 142.664 837.086 143.433 837.086 144.818V146.318H836.971V145.51L836.856 145.048C836.856 144.972 836.894 144.933 836.971 144.933C837.048 145.548 837.086 145.933 837.086 146.087C837.163 146.164 837.24 146.318 837.317 146.548C837.471 147.471 837.625 148.125 837.779 148.51C837.933 148.894 838.009 149.125 838.009 149.202C837.933 149.125 837.856 149.01 837.779 148.856C837.779 148.625 837.74 148.433 837.663 148.279C837.586 148.048 837.548 147.856 837.548 147.702L837.433 147.587L837.894 148.741C839.971 152.74 842.432 156.548 845.278 160.163C847.124 162.702 848.894 165.317 850.586 168.009C854.355 174.163 856.239 180.662 856.239 187.508C856.239 189.816 856.009 192.162 855.547 194.546C853.47 203.7 848.663 211.046 841.125 216.584C833.971 221.661 826.125 224.199 817.587 224.199ZM832.702 225.93C824.164 225.93 815.741 224.968 807.434 223.045C804.203 222.122 801.857 220.238 800.396 217.392C799.396 215.469 798.896 213.43 798.896 211.276C798.896 206.661 800.896 203.315 804.895 201.238C806.818 200.315 808.78 199.854 810.78 199.854C811.857 199.854 812.934 199.969 814.01 200.2C817.472 200.892 819.433 201.238 819.895 201.238C819.587 201.238 819.318 201.238 819.087 201.238C818.856 201.161 818.587 201.123 818.28 201.123C818.049 201.046 817.856 201.008 817.703 201.008C817.549 200.931 817.51 200.892 817.587 200.892L818.395 201.008C823.318 201.7 828.433 202.046 833.74 202.046C837.433 202.046 841.163 201.892 844.932 201.585C845.009 201.508 845.163 201.469 845.394 201.469C845.625 201.469 845.817 201.431 845.971 201.354H846.432H846.201C846.048 201.431 845.778 201.508 845.394 201.585C845.009 201.585 844.625 201.585 844.24 201.585C844.163 201.585 844.163 201.585 844.24 201.585L845.394 201.469C853.163 200.315 858.893 198.892 862.585 197.2L863.854 196.739L863.739 196.854C863.585 196.931 863.431 197.008 863.278 197.085C863.124 197.085 862.97 197.123 862.816 197.2C862.662 197.277 862.508 197.354 862.355 197.431C862.201 197.431 862.124 197.469 862.124 197.546C862.124 197.469 862.278 197.392 862.585 197.315C862.893 197.162 863.162 197.046 863.393 196.969C863.624 196.816 863.893 196.7 864.201 196.623C867.354 195.162 870.777 193.2 874.469 190.739C874.623 190.739 874.892 190.547 875.277 190.162L874.469 190.739C874.854 190.354 875.123 190.162 875.277 190.162L876.546 189.124C879.162 186.816 880.892 185.162 881.738 184.162L882.546 183.124C883.084 182.278 883.623 181.662 884.161 181.278L882.892 182.893C882.969 182.893 883.161 182.624 883.469 182.085C883.777 181.932 884.238 181.316 884.854 180.239C887.238 176.855 889.276 173.317 890.969 169.624L891.199 169.163L893.161 163.625C894.238 160.471 896.122 158.125 898.815 156.586C900.661 155.663 902.584 155.202 904.584 155.202C909.276 155.202 912.737 157.202 914.968 161.202C915.968 163.048 916.468 164.932 916.468 166.855C916.468 167.932 916.314 169.047 916.006 170.201C911.699 184.201 904.16 196.123 893.392 205.969C877.623 219.276 857.393 225.93 832.702 225.93Z" fill="#3433FE"/>
<path d="M17.8347 241.626L18.3844 241.944L18.6368 242.09L19.6577 242.68L16.853 241.059L17.47 241.416L17.8347 241.626Z" fill="#3433FE"/>
<path d="M244.968 247.43L232.552 240.246L231.15 241.059L230.378 241.505L229.747 241.871L226.943 243.492L242.164 252.298C242.231 252.337 242.391 252.43 242.391 252.694C242.391 252.958 242.231 253.051 242.164 253.09L124.229 321.321C124.091 321.402 123.912 321.402 123.774 321.321L5.83364 253.09C5.76633 253.051 5.60927 252.958 5.60927 252.694C5.60927 252.43 5.76633 252.34 5.83645 252.301L21.06 243.492L19.6577 242.68L18.6368 242.09L18.3844 241.947L18.2554 241.871L17.8347 241.626L17.4701 241.415L16.8531 241.059L15.4507 240.249L3.03181 247.433C1.13307 248.529 0 250.496 0 252.694C0 254.892 1.13307 256.862 3.03181 257.958L120.97 326.188C121.887 326.72 122.936 327.001 124.001 327.001C125.067 327.001 126.116 326.72 127.033 326.188L244.968 257.958C246.867 256.859 248 254.892 248 252.694C248 250.496 246.867 248.532 244.968 247.43Z" fill="#3433FE"/>
<path d="M244.968 219.325L231.949 211.796L230.55 212.605L229.904 212.979L229.072 213.459L229.818 213.027L229.06 213.465L228.253 213.932L227.739 214.23L226.337 215.042L242.161 224.193C242.228 224.232 242.388 224.325 242.388 224.589C242.388 224.853 242.228 224.946 242.161 224.985L124.226 293.216C124.088 293.297 123.909 293.297 123.771 293.216L5.83364 224.985C5.76633 224.946 5.60927 224.853 5.60927 224.589C5.60927 224.325 5.76633 224.235 5.83645 224.196L21.663 215.042L20.2607 214.23H20.2635L17.4561 212.605L16.0537 211.796L3.03181 219.328C1.13307 220.424 0 222.391 0 224.589C0 226.787 1.13307 228.757 3.03181 229.853L120.97 298.083C121.887 298.615 122.936 298.896 124.001 298.896C125.067 298.896 126.116 298.615 127.033 298.083L244.968 229.853C246.867 228.754 248 226.787 248 224.589C248 222.391 246.867 220.427 244.968 219.325Z" fill="#3433FE"/>
<path d="M244.654 198.283C244.618 198.336 244.587 198.392 244.547 198.443C244.503 198.502 244.452 198.555 244.404 198.612C244.36 198.665 244.317 198.718 244.27 198.769C244.303 198.735 244.331 198.696 244.362 198.662C244.427 198.592 244.491 198.522 244.547 198.446C244.578 198.406 244.601 198.361 244.629 198.319C244.679 198.243 244.733 198.167 244.777 198.089C244.8 198.049 244.817 198.007 244.836 197.968C244.842 197.959 244.845 197.951 244.848 197.943C244.822 197.99 244.803 198.044 244.775 198.092C244.738 198.159 244.693 198.221 244.648 198.286L244.654 198.283Z" fill="#3433FE"/>
<path d="M245.061 197.403C245.069 197.372 245.083 197.341 245.092 197.31C245.106 197.254 245.114 197.198 245.125 197.142C245.125 197.139 245.125 197.133 245.125 197.13C245.114 197.192 245.106 197.251 245.089 197.313C245.08 197.344 245.069 197.375 245.058 197.406L245.061 197.403Z" fill="#3433FE"/>
<path d="M123.505 125.027C123.415 125.041 123.328 125.058 123.241 125.081C123.208 125.089 123.174 125.095 123.14 125.103C123.132 125.103 123.124 125.106 123.115 125.109C123.121 125.109 123.129 125.109 123.135 125.106C123.253 125.072 123.373 125.05 123.497 125.03C123.497 125.03 123.502 125.03 123.505 125.03V125.027Z" fill="#3433FE"/>
<path d="M124.75 125.078C124.669 125.058 124.588 125.044 124.506 125.03C124.487 125.027 124.47 125.025 124.45 125.022C124.523 125.033 124.593 125.047 124.663 125.061C124.691 125.067 124.722 125.07 124.75 125.078Z" fill="#3433FE"/>
<path d="M243.95 199.056C243.933 199.07 243.914 199.078 243.897 199.092C243.799 199.165 243.7 199.236 243.594 199.3C243.712 199.23 243.824 199.151 243.933 199.07C243.939 199.067 243.944 199.064 243.947 199.059C244.006 199.011 244.059 198.957 244.116 198.907C244.059 198.957 244.009 199.011 243.947 199.056H243.95Z" fill="#3433FE"/>
<path d="M125.227 125.227C125.227 125.227 125.213 125.221 125.205 125.219C125.205 125.219 125.205 125.219 125.21 125.219C125.258 125.238 125.306 125.261 125.353 125.283C125.418 125.311 125.482 125.339 125.547 125.37C125.449 125.317 125.348 125.272 125.247 125.23C125.241 125.23 125.235 125.227 125.23 125.224L125.227 125.227Z" fill="#3433FE"/>
<path d="M123.609 125.013C123.724 124.999 123.839 124.991 123.957 124.991C123.94 124.991 123.92 124.991 123.903 124.991C123.819 124.991 123.735 124.999 123.651 125.008C123.637 125.008 123.623 125.01 123.609 125.013Z" fill="#3433FE"/>
<path d="M124.848 125.103C124.899 125.117 124.949 125.134 125 125.151C125.039 125.165 125.081 125.174 125.12 125.19C125.042 125.162 124.966 125.137 124.885 125.115C124.871 125.112 124.86 125.109 124.846 125.103H124.848Z" fill="#3433FE"/>
<path d="M124.386 125.011C124.386 125.011 124.386 125.011 124.383 125.011C124.265 124.996 124.147 124.988 124.029 124.988C124.024 124.988 124.018 124.988 124.015 124.988C124.139 124.988 124.265 124.996 124.388 125.011H124.386Z" fill="#3433FE"/>
<path d="M245.167 196.903C245.167 196.903 245.165 196.917 245.165 196.922C245.165 196.914 245.167 196.908 245.167 196.903C245.184 196.776 245.19 196.65 245.193 196.521C245.193 196.65 245.184 196.779 245.167 196.903Z" fill="#3433FE"/>
<path d="M245.007 197.569C244.991 197.617 244.979 197.664 244.96 197.709C244.977 197.67 244.985 197.631 244.999 197.591C244.999 197.586 245.002 197.577 245.005 197.572L245.007 197.569Z" fill="#3433FE"/>
<path d="M244.971 191.22L127.033 122.99C125.163 121.908 122.837 121.908 120.967 122.99L101.609 134.19C101.912 134.648 102.198 135.12 102.467 135.603C103.124 136.786 103.665 138.003 104.088 139.246L105.491 138.433L123.771 127.858C123.906 127.779 124.097 127.782 124.229 127.858L242.164 196.088C242.231 196.127 242.391 196.22 242.391 196.484C242.391 196.748 242.231 196.841 242.164 196.88L124.229 265.111C124.091 265.192 123.912 265.192 123.774 265.111L5.83364 196.88C5.76633 196.841 5.60927 196.748 5.60927 196.484C5.60927 196.22 5.76633 196.13 5.83645 196.091L82.1254 151.952L84.8964 147.472C85.4881 146.519 85.1936 145.684 84.9637 145.271C84.7757 144.931 84.4672 144.58 84.0578 144.347C81.9711 145.552 79.8817 146.761 77.795 147.969L3.03181 191.223C1.13307 192.319 0 194.286 0 196.484C0 198.682 1.13307 200.652 3.03181 201.748L120.97 269.978C121.887 270.51 122.936 270.791 124.001 270.791C125.067 270.791 126.116 270.51 127.033 269.978L227.672 211.753L244.968 201.748C246.867 200.649 248 198.682 248 196.484C248 194.286 246.867 192.322 244.971 191.22ZM125 125.151C124.949 125.134 124.899 125.117 124.848 125.103C124.86 125.106 124.874 125.109 124.885 125.112C124.947 125.129 125.003 125.148 125.062 125.171C125.039 125.165 125.019 125.159 125 125.151ZM125.35 125.286C125.328 125.275 125.306 125.263 125.28 125.255C125.269 125.249 125.258 125.241 125.244 125.235C125.235 125.233 125.233 125.23 125.224 125.227H125.227C125.227 125.227 125.238 125.233 125.244 125.235C125.345 125.275 125.446 125.322 125.544 125.376C125.482 125.342 125.415 125.317 125.35 125.286ZM244.365 198.659C244.376 198.645 244.39 198.628 244.404 198.612C244.424 198.592 244.441 198.572 244.461 198.553C244.43 198.589 244.399 198.626 244.365 198.659ZM244.634 198.317C244.634 198.317 244.648 198.294 244.654 198.283C244.66 198.272 244.668 198.26 244.677 198.252C244.662 198.274 244.648 198.294 244.634 198.317Z" fill="#3433FE"/>
<path d="M125.205 125.219C125.177 125.207 125.149 125.199 125.12 125.188" stroke="#3433FE" stroke-linecap="round" stroke-linejoin="round"/>
<path d="M244.55 198.443C244.581 198.404 244.604 198.359 244.632 198.316" stroke="#3433FE" stroke-linecap="round" stroke-linejoin="round"/>
<path d="M244.839 197.965C244.82 198.005 244.803 198.047 244.78 198.086" stroke="#3433FE" stroke-linecap="round" stroke-linejoin="round"/>
<path d="M244.365 198.659C244.334 198.693 244.306 198.732 244.273 198.766" stroke="#3433FE" stroke-linecap="round" stroke-linejoin="round"/>
<path d="M243.948 199.056C243.948 199.056 243.936 199.062 243.933 199.067" stroke="#3433FE" stroke-linecap="round" stroke-linejoin="round"/>
<path d="M123.242 125.081C123.208 125.089 123.174 125.095 123.14 125.103" stroke="#3433FE" stroke-linecap="round" stroke-linejoin="round"/>
<path d="M244.963 197.707C244.979 197.667 244.988 197.628 245.002 197.589" stroke="#3433FE" stroke-linecap="round" stroke-linejoin="round"/>
<path d="M245.122 197.142C245.111 197.198 245.103 197.257 245.089 197.31" stroke="#3433FE" stroke-linecap="round" stroke-linejoin="round"/>
<path d="M125.227 125.227C125.227 125.227 125.239 125.23 125.245 125.233" stroke="#3433FE" stroke-linecap="round" stroke-linejoin="round"/>
<path d="M197.438 179.765L196.19 186.872C195.856 188.755 194.12 189.953 192.216 189.776C183.384 188.947 166.938 196.954 159.071 198.943C150.89 201.015 143.163 202.982 135.296 201.591C129.064 200.492 124.534 197.749 121.808 193.432C117.764 187.033 118.925 180.299 120.521 174.073C106.282 181.853 77.1949 201.484 66.2259 209.182C64.6357 210.317 62.7005 210.705 60.8663 210.379C54.9008 209.325 53.8519 202.976 56.0143 199.5L87.2635 148.979L87.2803 148.953C88.6154 146.803 88.0965 144.389 86.6409 142.852C85.3339 141.46 83.2613 140.786 81.1129 141.677L66.7813 148.026C64.9358 148.796 62.8351 147.922 62.0891 146.078L61.7329 145.218L76.9032 130.519C77.9381 129.513 78.9422 128.411 79.8929 127.237C88.1105 125.868 95.2343 129.673 99.1804 135.598C100.224 137.163 101.046 138.878 101.606 140.682C103.152 145.659 102.72 151.334 99.5058 156.525L86.2959 177.865C113.484 159.566 123.053 155.935 128.657 156.584C140.798 158.02 135.683 173.374 135.127 175.102C132.699 182.822 132.819 186.544 137.811 187.423C142.652 188.28 148.637 186.757 155.579 184.992C164.498 182.733 182.82 174.281 194.403 175.529C196.437 175.751 197.839 177.758 197.438 179.765Z" fill="#3433FE"/>
<path d="M139.141 3.76101L132.881 0.264758C132.014 0.031487 129.19 -0.564337 125.572 1.46203C120.846 4.10951 118.465 9.16558 118.078 10.0172C114.104 17.2008 110.132 24.3844 106.158 31.5652L67.0224 102.333C65.2751 105.49 63.9766 108.834 63.2277 112.049L56.9005 139.423C56.4545 141.357 56.7883 142.892 57.7727 143.44C58.7571 143.988 60.2352 143.456 61.6179 142.085L81.4326 122.203C83.7549 119.862 85.8976 116.987 87.6421 113.828L126.809 43.0376C130.783 35.854 134.754 28.6704 138.729 21.4896C142.927 13.9013 143.109 5.97005 139.138 3.76382L139.141 3.76101Z" fill="#3433FE"/>
</svg>
